<svg version="1.1" xmlns="http://www.w3.org/2000/svg" xmlns:xlink="http://www.w3.org/1999/xlink" x="0px" y="0px" width="77px"
	 height="88px" viewBox="0 0 77 88" style="overflow:visible;enable-background:new 0 0 77 88;" xml:space="preserve">
<style type="text/css">
	.st0{fill:#E2E5E7;}
	.st1{fill:#B0B7BD;}
	.st2{fill:#CAD1D8;}
	.st3{fill:#F15642;}
	.st4{fill:#FFFFFF;}
</style>
<defs>
</defs>
<g>
	<path class="st0" d="M16.5,0C13.48,0,11,2.47,11,5.5v77c0,3.03,2.48,5.5,5.5,5.5h55c3.03,0,5.5-2.47,5.5-5.5V22L55,0H16.5z"/>
	<path class="st1" d="M60.5,22H77L55,0v16.5C55,19.52,57.47,22,60.5,22z"/>
	<polygon class="st2" points="77,38.5 60.5,22 77,22 	"/>
	<path class="st3" d="M66,71.5c0,1.51-1.24,2.75-2.75,2.75H2.75C1.24,74.25,0,73.01,0,71.5V44c0-1.51,1.24-2.75,2.75-2.75h60.5
		c1.51,0,2.75,1.24,2.75,2.75V71.5z"/>
	<g>
		<path class="st4" d="M11.99,52.1c0-0.73,0.57-1.52,1.49-1.52h5.08c2.86,0,5.43,1.91,5.43,5.58c0,3.48-2.57,5.41-5.43,5.41h-3.67
			v2.9c0,0.97-0.62,1.52-1.41,1.52c-0.73,0-1.49-0.55-1.49-1.52V52.1z M14.89,53.36v5.48h3.67c1.47,0,2.64-1.3,2.64-2.66
			c0-1.54-1.17-2.81-2.64-2.81H14.89z"/>
		<path class="st4" d="M28.3,66c-0.73,0-1.52-0.4-1.52-1.36V52.15c0-0.79,0.79-1.36,1.52-1.36h5.04c10.05,0,9.83,15.22,0.2,15.22
			H28.3z M29.69,53.47v9.85h3.65c5.94,0,6.2-9.85,0-9.85L29.69,53.47L29.69,53.47z"/>
		<path class="st4" d="M46.73,53.64v3.5h5.61c0.79,0,1.58,0.79,1.58,1.56c0,0.73-0.79,1.32-1.58,1.32h-5.61v4.62
			c0,0.77-0.55,1.36-1.32,1.36c-0.97,0-1.56-0.59-1.56-1.36V52.15c0-0.79,0.59-1.36,1.56-1.36h7.72c0.97,0,1.54,0.57,1.54,1.36
			c0,0.7-0.57,1.5-1.54,1.5L46.73,53.64L46.73,53.64z"/>
	</g>
	<path class="st2" d="M63.25,74.25H11V77h52.25c1.51,0,2.75-1.24,2.75-2.75V71.5C66,73.01,64.76,74.25,63.25,74.25z"/>
</g>
</svg>
