<svg version="1.1" xmlns="http://www.w3.org/2000/svg" xmlns:xlink="http://www.w3.org/1999/xlink" x="0px" y="0px" width="40px"
	 height="40px" viewBox="0 0 40 40" style="overflow:visible;enable-background:new 0 0 40 40;" xml:space="preserve">
<style type="text/css">
	.st0{fill:#35495E;enable-background:new    ;}
	.st1{fill:#FFFFFF;}
</style>
<defs>
</defs>
<g>
	<path class="st0" d="M35,40H5c-2.8,0-5-2.2-5-5V5c0-2.8,2.2-5,5-5h30c2.8,0,5,2.2,5,5v30C40,37.8,37.8,40,35,40z"/>
	<path class="st1" d="M32.5,12.2c-0.9,0.4-1.9,0.7-3,0.8c1.1-0.6,1.9-1.6,2.3-2.8c-1,0.6-2.1,1-3.2,1.2c-0.9-1-2.3-1.6-3.7-1.6
		c-2.8,0-5.1,2.3-5.1,5.1c0,0.4,0,0.8,0.1,1.2c-4.3-0.2-8-2.2-10.6-5.4c-0.4,0.8-0.7,1.6-0.7,2.6c0,1.8,0.9,3.3,2.3,4.3
		c-0.8,0-1.6-0.3-2.3-0.6c0,0,0,0,0,0.1c0,2.5,1.8,4.6,4.1,5c-0.4,0.1-0.9,0.2-1.3,0.2c-0.3,0-0.7,0-1-0.1c0.7,2,2.5,3.5,4.8,3.6
		c-1.7,1.4-4,2.2-6.4,2.2c-0.4,0-0.8,0-1.2-0.1c2.3,1.5,5,2.3,7.9,2.3c9.4,0,14.6-7.8,14.6-14.6c0-0.2,0-0.4,0-0.7
		C30.9,14.2,31.8,13.3,32.5,12.2z"/>
</g>
</svg>

