<svg version="1.1" xmlns="http://www.w3.org/2000/svg" xmlns:xlink="http://www.w3.org/1999/xlink" x="0px" y="0px" width="152px"
	 height="175.27px" viewBox="0 0 152 175.27" style="overflow:visible;enable-background:new 0 0 152 175.27;" xml:space="preserve"
	>
<style type="text/css">
	.st0{fill:none;stroke:#707070;}
	.st1{fill:url(#Path_2-2_2_);}
	.st2{fill:#FFFFFF;}
	.st3{fill:url(#Path_2-2_3_);}
</style>
<defs>
</defs>
<g id="Icon_logo_web_1_" transform="translate(9 6)">
	<path id="Path_1_1_" class="st0" d="M32.15,78.06"/>
	<g transform="matrix(1, 0, 0, 1, -9, -6)">
		
			<linearGradient id="Path_2-2_2_" gradientUnits="userSpaceOnUse" x1="351.4346" y1="400.6855" x2="351.4346" y2="400.0046" gradientTransform="matrix(223.2245 0 0 -257.3981 -78372.8047 103135.6875)">
			<stop  offset="0" style="stop-color:#FF335E"/>
			<stop  offset="0.498" style="stop-color:#FF8639"/>
			<stop  offset="1" style="stop-color:#FF9526"/>
		</linearGradient>
		<path id="Path_2-2_1_" class="st1" d="M113.67,8.38c-5.36-2.87-11.05-5.06-16.94-6.52c-9.04-2.09-20.35-1.85-20.35-1.85
			c-5.99-0.04-11.96,0.58-17.8,1.85c-9.42,2.09-19.89,6.52-19.89,6.52l11.4,6.06c0,0-9.92-1.4-19.58,1.07s-19.07,8.82-19.07,8.82
			l5.46,6.12c-3.14-0.01-6.27,0.34-9.33,1.04c-2.64,0.73-5.16,1.87-7.44,3.39c0,0-0.89,9.81,2.56,17.52
			c3.45,7.71,11.25,13.32,11.25,13.32c-2.24,0.24-4.49,0.24-6.73,0c-2.4-0.33-4.77-0.87-7.07-1.61c0,0,0.54,12.31,5.81,20.66
			s15.27,12.75,15.27,12.75c-2.4,0.45-4.83,0.69-7.28,0.71c-2.52-0.04-5.03-0.28-7.52-0.71c0,0,2.3,11.84,9.01,20.68
			s17.83,14.66,17.83,14.66H21.18c0,0,8,12.51,17.35,18.87c9.35,6.36,20.03,6.57,20.03,6.57c-1.99,0.53-4.02,0.91-6.06,1.16
			c-2.2,0.22-4.41,0.31-6.63,0.28c3.95,3.11,8.2,5.82,12.69,8.08c5.79,2.82,11.74,5.31,17.8,7.46c0,0,10.81-4.05,18.13-7.94
			s11.13-7.61,11.13-7.61l-11.13-1.44c0,0,11.11-0.21,19.98-6.57c8.87-6.36,15.5-18.87,15.5-18.87h-11.84
			c0,0,11.42-5.82,18.35-14.66s9.38-20.68,9.38-20.68h-15.89c0,0,10.68-4.8,15.89-12.75s5.88-20.66,5.88-20.66
			c-1.86,0.86-3.85,1.4-5.88,1.61c-2.76,0.22-5.53,0.22-8.29,0c0,0,8.85-5.61,12.16-13.32c3.31-7.71,2.02-17.52,2.02-17.52
			l-6.97-1.92l-9.14-2.51c0.47-1.18,1.13-2.29,1.94-3.27c0.87-0.86,1.95-1.49,3.13-1.81c-4.47-3.94-9.77-6.81-15.5-8.4
			c-9.29-2.47-22.2-2.53-22.2-2.53c1.37-1.31,2.86-2.5,4.45-3.54C109.41,9.8,111.5,8.95,113.67,8.38z"/>
	</g>
	<path id="Exclusion_1_1_" class="st2" d="M73.03,133.06c-0.68,0-1.69-0.33-2.66-1.87c-0.36-0.59-0.65-1.22-0.87-1.87l-1.67,2.55
		l-1.23-6.16c0,0,0,0.01,0,0.01c-0.2,0.99-0.47,1.95-0.82,2.9c-0.52,1.39-1.42,3.16-2.75,3.71c-0.8,0.4-1.66,0.65-2.55,0.72
		c-1.17,0-2.24-0.77-3.84-2.76c-4.06-5.05-5.43-8.98-4.08-11.7c0.86-1.74,2.85-3.5,5.46-4.83c2.85-1.45,5.99-2.24,9.19-2.31
		c0.09,0,0.17,0,0.26,0c1.66,0.01,3.31,0.24,4.91,0.67c1.53,0.41,3.01,0.99,4.42,1.72c2.7,1.41,4.64,3.19,5.17,4.75
		c0.26,0.75,0.14,1.88-0.35,3.36c-0.53,1.53-1.21,3-2.04,4.4c-0.82,1.43-1.74,2.78-2.78,4.06c-0.7,0.94-1.57,1.74-2.57,2.36
		C73.86,132.95,73.45,133.06,73.03,133.06z M86.24,114.33c-2.76-0.14-5.47-0.87-7.92-2.15c-3.97-1.35-6.63-2.66-7.91-3.89
		c-0.72-0.55-1.07-1.45-0.92-2.35c0.03-0.16,0.03-0.33,0-0.49c-0.44-1.29,0.88-2.16,2.56-3.25c1.26-0.75,2.41-1.67,3.42-2.74
		c1.37-1.51,2.35-3.34,2.86-5.32c-0.01,0-0.01,0.01-0.02,0.01c-0.55,0.22-2.53,0.97-4.99,1.67c-2.79,0.79-6.27,1.51-6.3,1.52
		c-2.06-0.39-4.1-0.89-6.1-1.52c-2.21-0.74-4.56-1.67-4.59-1.68c0.05,0.62,0.15,1.24,0.33,1.84c0.34,1.3,0.99,2.49,1.89,3.48
		c0.92,0.89,1.91,1.69,2.98,2.39c1.71,1.2,3.19,2.24,3.28,3.6c0.24,3.7-2.2,4.54-5.89,5.8c-0.82,0.28-1.67,0.57-2.59,0.92
		c-2.59,0.9-5.31,1.34-8.05,1.3c-1.09,0.01-2.18-0.05-3.26-0.18c-1.22-0.93-2.34-1.98-3.34-3.15c-0.91-1.04-1.68-2.18-2.3-3.41
		c-0.66-1.29-1.02-2.72-1.04-4.17c0-4.33,4.59-9.4,6.55-11.58c0.32-0.29,0.59-0.63,0.82-0.99c0-0.01-0.01-0.01-0.02-0.01
		c-0.05,0.01-0.1,0.03-0.15,0.06c-1.43,0.79-5.06,1.36-5.09,1.37l2.14-3.48v0c-0.91,0.62-1.98,0.95-3.08,0.97
		c-1.75-0.07-3.38-0.9-4.46-2.28c-0.49-1.05-0.83-2.16-1.03-3.31c-0.61-2.52-1.36-5.65-2.81-6.98l-0.84-0.71
		c-1.86-1.45-3.61-3.05-5.21-4.79c-1.17-1.32-1.91-2.97-2.12-4.73c-0.53-3.93-0.71-5.96,0.5-12.98c0.69-2.81,1.81-5.49,3.3-7.97
		c1.42-2.39,3.1-4.61,5.01-6.63c3.31-3.53,7.3-6.46,10.17-7.49c1.62-0.61,3.33-0.91,5.06-0.9c2.55,0.04,5.06,0.57,7.41,1.54
		c2.24,0.9,4.37,2.04,6.38,3.38c2.2,1.45,4.25,3.1,6.15,4.92v0c1.67-1.9,3.57-3.58,5.64-5.03c1.99-1.41,4.14-2.58,6.41-3.46
		c2.63-1.02,5.42-1.56,8.24-1.57c2.35,0.01,4.69,0.39,6.93,1.13c3.11,1.02,6.31,3.64,9.25,7.57c3.19,4.43,5.68,9.32,7.37,14.51
		c1.3,3.84,1.24,6.35,0.38,12.98c-0.14,1.06-1.17,2.87-2.83,4.99c-1.5,1.94-3.22,3.69-5.13,5.23c-2.35,1.38-3.3,5.95-4,9.28
		c-0.07,0.35-0.14,0.69-0.21,1.01c-0.15,0.77-0.68,1.42-1.4,1.74c-0.73,0.31-1.51,0.46-2.3,0.43c-0.94-0.01-1.87-0.13-2.79-0.36
		l1.26,2.97l-4.86-1.37c0,0,0.01,0.01,0.01,0.01c1.18,1.23,2.27,2.54,3.26,3.93c0.94,1.31,1.78,2.69,2.49,4.13
		c0.78,1.54,1.33,3.18,1.64,4.87c-1.37,3.93-3.67,7.46-6.7,10.3C88.69,114.05,87.47,114.42,86.24,114.33L86.24,114.33z M95.99,60.63
		c-3.35,0-16.83,4.72-17.57,6.54c-0.47,1.16-0.57,5.8-0.51,9.43c0.06,3.75,0.32,8.06,0.73,8.68c0.03,0.05,0.07,0.07,0.1,0.07h0.01
		c0.28-0.02,0.6-2.4,0.97-5.16c0.48-3.56,1.01-7.6,1.69-8.49c1.07-0.53,4.74-2.71,8.31-5.06c2.51-1.65,6.75-4.57,7-5.61
		c0.02-0.08,0.01-0.16-0.03-0.23C96.6,60.69,96.36,60.63,95.99,60.63L95.99,60.63z M39.83,60.63L39.83,60.63
		c-0.37,0-0.61,0.06-0.7,0.18c-0.05,0.07-0.06,0.15-0.03,0.23c0.1,0.42,0.86,1.19,2.27,2.28c1.18,0.92,2.77,2.04,4.73,3.33
		c3.57,2.35,7.25,4.53,8.31,5.06c0.68,0.89,1.21,4.93,1.69,8.49c0.37,2.75,0.68,5.13,0.97,5.16h0.01c0.03,0,0.07-0.02,0.1-0.07
		c0.42-0.62,0.67-4.93,0.73-8.68c0.06-3.62-0.04-8.27-0.51-9.43C56.65,65.35,43.18,60.63,39.83,60.63L39.83,60.63z"/>
</g>
</svg>
