<svg version="1.1" xmlns="http://www.w3.org/2000/svg" xmlns:xlink="http://www.w3.org/1999/xlink" x="0px" y="0px" width="40px"
	 height="40px" viewBox="0 0 40 40" style="overflow:visible;enable-background:new 0 0 40 40;" xml:space="preserve">
<style type="text/css">
	.st0{fill:#35495E;enable-background:new    ;}
	.st1{fill:#FFFFFF;}
</style>
<defs>
</defs>
<g>
	<path class="st0" d="M35,40H5c-2.8,0-5-2.2-5-5V5c0-2.8,2.2-5,5-5h30c2.8,0,5,2.2,5,5v30C40,37.8,37.8,40,35,40z"/>
	<g>
		<g>
			<path class="st1" d="M20,7.8c-6.9,0-12.5,5.6-12.5,12.5c0,5.5,3.6,10.2,8.6,11.9c0.6,0.1,0.9-0.3,0.9-0.6c0-0.3,0-1.1,0-2.1
				c-3.5,0.8-4.2-1.7-4.2-1.7c-0.6-1.4-1.4-1.8-1.4-1.8c-1.1-0.8,0.1-0.8,0.1-0.8c1.3,0.1,1.9,1.3,1.9,1.3c1.1,1.9,2.9,1.4,3.6,1
				c0.1-0.8,0.4-1.4,0.8-1.7c-2.8-0.3-5.7-1.4-5.7-6.2c0-1.4,0.5-2.5,1.3-3.4c-0.1-0.3-0.6-1.6,0.1-3.3c0,0,1.1-0.3,3.4,1.3
				c1-0.3,2.1-0.4,3.1-0.4c1.1,0,2.1,0.1,3.1,0.4c2.4-1.6,3.4-1.3,3.4-1.3c0.7,1.7,0.3,3,0.1,3.3c0.8,0.9,1.3,2,1.3,3.4
				c0,4.8-2.9,5.9-5.7,6.2c0.4,0.4,0.8,1.2,0.8,2.3c0,1.7,0,3,0,3.4c0,0.3,0.2,0.7,0.9,0.6c5-1.7,8.5-6.4,8.5-11.9
				C32.5,13.4,26.9,7.8,20,7.8z"/>
		</g>
	</g>
</g>
</svg>

